<svg width="14" height="15" viewBox="0 0 14 15" fill="none" xmlns="http://www.w3.org/2000/svg">
<path d="M9.25 6.01514V5.95264C9.25 5.15873 8.60641 4.51514 7.8125 4.51514H6.25C5.42157 4.51514 4.75 5.18671 4.75 6.01514C4.75 6.84356 5.42157 7.51514 6.25 7.51514H7.75C8.57843 7.51514 9.25 8.18671 9.25 9.01514C9.25 9.84356 8.57843 10.5151 7.75 10.5151H6.21875C5.40758 10.5151 4.75 9.85755 4.75 9.04639V9.01514M7 11.6401V3.39014M3.4 13.5151H10.6C11.4401 13.5151 11.8601 13.5151 12.181 13.3516C12.4632 13.2078 12.6927 12.9784 12.8365 12.6961C13 12.3753 13 11.9552 13 11.1151V3.91514C13 3.07506 13 2.65502 12.8365 2.33415C12.6927 2.05191 12.4632 1.82244 12.181 1.67863C11.8601 1.51514 11.4401 1.51514 10.6 1.51514H3.4C2.55992 1.51514 2.13988 1.51514 1.81901 1.67863C1.53677 1.82244 1.3073 2.05191 1.16349 2.33415C1 2.65502 1 3.07506 1 3.91514V11.1151C1 11.9552 1 12.3753 1.16349 12.6961C1.3073 12.9784 1.53677 13.2078 1.81901 13.3516C2.13988 13.5151 2.55992 13.5151 3.4 13.5151Z" stroke="#7E7E7E" stroke-width="1.5" stroke-linecap="round" stroke-linejoin="round"/>
</svg>
