<svg width="15" height="14" viewBox="0 0 15 14" fill="none" xmlns="http://www.w3.org/2000/svg">
<path d="M13.3 8.69017C12.975 8.60956 12.4453 8.60659 12 8.60956C11.8511 8.61055 11.9411 8.60422 11.74 8.60956C11.2152 8.62593 10.701 8.84406 10.7 9.46204C10.6988 10.1204 11.35 10.3152 12 10.3152C12.65 10.3152 13.3 10.4654 13.3 11.1683C13.3 11.6965 12.7751 11.9279 12.1209 12.0046C11.6009 12.0046 11.35 12.0214 10.7 11.9402M12 12.2651V12.9151M12 7.71515V8.36515M1.59998 7.06515H8.74998M1.59998 7.06515C1.59998 10.296 4.21911 12.9151 7.44998 12.9151M1.59998 7.06515C1.59998 3.83428 4.21911 1.21515 7.44998 1.21515M7.44998 12.9151C7.66968 12.9151 7.88656 12.903 8.09998 12.8794M7.44998 12.9151C2.74113 7.76715 5.48795 2.97015 7.44998 1.21515M7.44998 1.21515C9.9971 1.21515 12.164 2.84302 12.9671 5.11515M7.44998 1.21515C8.32092 1.99419 9.3465 3.37265 9.80594 5.11515" stroke="#7E7E7E" stroke-width="1.5" stroke-linecap="round" stroke-linejoin="round"/>
</svg>
